<?xml version="1.0" encoding="UTF-8"?>
<!DOCTYPE svg PUBLIC "-//W3C//DTD SVG 1.1//EN" "http://www.w3.org/Graphics/SVG/1.1/DTD/svg11.dtd">
<svg xmlns="http://www.w3.org/2000/svg" version="1.1" width="484px" height="485px" style="shape-rendering:geometricPrecision; text-rendering:geometricPrecision; image-rendering:optimizeQuality; fill-rule:evenodd; clip-rule:evenodd" xmlns:xlink="http://www.w3.org/1999/xlink">
<g><path style="opacity:0.957" fill="#090302" d="M 354.5,293.5 C 352.269,296.836 350.603,300.503 349.5,304.5C 346.512,309.792 343.012,314.792 339,319.5C 335.351,326.824 330.518,333.324 324.5,339C 319.167,343.333 313.833,347.667 308.5,352C 297.788,356.751 287.121,361.418 276.5,366C 255.838,367.607 236.172,364.107 217.5,355.5C 215.337,353.917 213.004,352.584 210.5,351.5C 189.799,339.964 173.965,323.631 163,302.5C 158.417,293.75 154.417,284.75 151,275.5C 141.824,271.648 134.49,265.648 129,257.5C 125.376,247.994 122.543,238.327 120.5,228.5C 99.9429,238.523 78.2762,243.69 55.5,244C 48.026,240.88 45.526,235.38 48,227.5C 49.8883,222.055 52.555,217.055 56,212.5C 71.7223,195.384 90.5556,182.884 112.5,175C 80.9037,146.781 72.4037,112.615 87,72.5C 90.306,60.8919 94.9727,49.8919 101,39.5C 106.529,34.9562 111.196,35.6229 115,41.5C 115.566,57.3572 117.566,73.0238 121,88.5C 123.245,93.9974 126.245,98.9974 130,103.5C 133.33,91.3472 139.83,81.1806 149.5,73C 176.132,55.6872 204.798,42.6872 235.5,34C 266.404,28.9388 296.071,32.9388 324.5,46C 329.875,50.0393 333.709,55.206 336,61.5C 337.997,74.7481 339.33,88.0815 340,101.5C 340.235,105.32 341.068,108.987 342.5,112.5C 357.153,102.868 366.653,89.5344 371,72.5C 372.556,58.7984 374.223,45.1318 376,31.5C 380.333,26.1667 384.667,26.1667 389,31.5C 404.66,58.4735 410.994,87.4735 408,118.5C 403.097,137.401 393.264,153.235 378.5,166C 371.972,171.09 365.306,175.924 358.5,180.5C 360.978,188.412 363.145,196.412 365,204.5C 373.833,195 382.667,185.5 391.5,176C 394.719,173.955 397.552,174.455 400,177.5C 403.69,199.283 403.023,220.95 398,242.5C 395.734,250.095 391.234,255.928 384.5,260C 377.967,263.022 371.3,265.522 364.5,267.5C 361.679,276.457 358.346,285.124 354.5,293.5 Z"/></g>
<g><path style="opacity:1" fill="#f647a7" d="M 288.5,117.5 C 278.342,116.341 268.008,116.175 257.5,117C 253.867,117.149 250.534,117.982 247.5,119.5C 245.5,119.5 243.5,119.5 241.5,119.5C 237.884,117.283 234.217,114.283 230.5,110.5C 228.167,110.5 225.833,110.5 223.5,110.5C 222.448,110.649 221.448,110.483 220.5,110C 223.952,109.115 227.286,108.282 230.5,107.5C 248.096,107.02 265.763,105.52 283.5,103C 287.625,102.296 291.125,100.463 294,97.5C 293.905,81.736 285.905,73.4027 270,72.5C 263.488,72.9168 257.654,75.0835 252.5,79C 245.625,84.2073 239.792,90.374 235,97.5C 234.517,98.448 234.351,99.448 234.5,100.5C 231.5,100.5 228.5,100.5 225.5,100.5C 218.96,100.703 218.294,99.3694 223.5,96.5C 223,96.1667 222.5,95.8333 222,95.5C 218.209,97.1651 214.376,98.3317 210.5,99C 213.802,97.3489 217.136,95.6822 220.5,94C 220,93.8333 219.5,93.6667 219,93.5C 215.867,94.838 212.701,95.6713 209.5,96C 218.021,92.271 226.688,88.9377 235.5,86C 231.054,85.3692 226.887,86.2025 223,88.5C 223.465,86.2134 223.632,84.0467 223.5,82C 230.728,79.3593 238.061,77.0259 245.5,75C 238.532,74.9284 231.866,76.4284 225.5,79.5C 224.226,78.6406 224.392,77.9739 226,77.5C 229.244,76.53 232.41,75.3634 235.5,74C 227.277,74.5154 219.443,76.6821 212,80.5C 211.5,80.1667 211,79.8333 210.5,79.5C 219.554,73.6966 229.22,69.0299 239.5,65.5C 238.078,64.4528 236.578,64.4528 235,65.5C 234,64.8333 233,64.1667 232,63.5C 228.575,64.9823 225.075,65.8157 221.5,66C 223.5,65 225.5,64 227.5,63C 225.575,61.4052 223.575,61.2385 221.5,62.5C 220.646,61.4783 219.646,60.6449 218.5,60C 223.42,57.8043 228.42,55.8043 233.5,54C 226.041,54.4518 219.041,56.6185 212.5,60.5C 211.167,59.8333 211.167,59.1667 212.5,58.5C 218.363,55.7687 224.363,53.4353 230.5,51.5C 229.467,50.548 228.3,50.548 227,51.5C 226,50.8333 225,50.1667 224,49.5C 222.56,50.1476 221.06,50.4809 219.5,50.5C 219.433,49.0413 219.766,47.7079 220.5,46.5C 254.6,35.9258 287.934,38.0924 320.5,53C 325.86,57.2188 329.027,62.7188 330,69.5C 330.434,88.7059 332.601,107.706 336.5,126.5C 320.942,121.279 304.942,118.279 288.5,117.5 Z"/></g>
<g><path style="opacity:1" fill="#d7c70b" d="M 383.5,42.5 C 384.458,42.9528 385.292,43.6195 386,44.5C 388.141,49.7564 389.974,55.0897 391.5,60.5C 388.5,60.5 385.5,60.5 382.5,60.5C 383.074,54.5164 383.407,48.5164 383.5,42.5 Z"/></g>
<g><path style="opacity:1" fill="#a39608" d="M 105.5,50.5 C 106.167,55.8333 106.833,61.1667 107.5,66.5C 107.5,67.8333 107.5,69.1667 107.5,70.5C 104.102,70.8204 100.768,70.487 97.5,69.5C 99.4119,62.74 102.079,56.4067 105.5,50.5 Z"/></g>
<g><path style="opacity:1" fill="#1a0a11" d="M 268.5,56.5 C 271.518,56.3354 274.518,56.502 277.5,57C 277.957,57.414 278.291,57.914 278.5,58.5C 270.882,61.7044 263.215,64.7044 255.5,67.5C 255.393,65.0968 256.393,63.2635 258.5,62C 261.767,59.8703 265.1,58.037 268.5,56.5 Z"/></g>
<g><path style="opacity:1" fill="#1f0c15" d="M 305.5,53.5 C 309.985,53.717 313.985,55.217 317.5,58C 319.734,59.6379 321.067,61.8045 321.5,64.5C 321.66,66.1992 321.494,67.8659 321,69.5C 318.101,62.2684 312.934,57.4351 305.5,55C 304.262,54.31 304.262,53.81 305.5,53.5 Z"/></g>
<g><path style="opacity:1" fill="#280f1a" d="M 206.5,55.5 C 208.337,55.6395 208.67,56.3061 207.5,57.5C 195.347,62.91 183.68,68.7433 172.5,75C 173.381,74.2917 174.047,73.4584 174.5,72.5C 184.537,65.8126 195.204,60.146 206.5,55.5 Z"/></g>
<g><path style="opacity:1" fill="#ea439e" d="M 206.5,55.5 C 195.204,60.146 184.537,65.8126 174.5,72.5C 168.51,73.4919 163.844,76.4919 160.5,81.5C 155.102,84.9596 151.102,89.6263 148.5,95.5C 146.044,99.7378 145.044,104.404 145.5,109.5C 145.5,110.833 145.5,112.167 145.5,113.5C 144.698,114.952 144.198,116.618 144,118.5C 143.329,117.748 142.496,117.414 141.5,117.5C 140.542,117.047 139.708,116.381 139,115.5C 137.821,105.221 140.155,95.8874 146,87.5C 151.188,81.8317 157.021,76.9983 163.5,73C 177.339,65.0802 191.672,58.2469 206.5,52.5C 210.228,51.6171 213.895,50.7838 217.5,50C 213.991,52.2808 210.324,54.1142 206.5,55.5 Z"/></g>
<g><path style="opacity:1" fill="#5d5606" d="M 105.5,50.5 C 105.56,49.9569 105.893,49.6236 106.5,49.5C 107.495,55.1278 107.829,60.7945 107.5,66.5C 106.833,61.1667 106.167,55.8333 105.5,50.5 Z"/></g>
<g><path style="opacity:1" fill="#df3b8a" d="M 220.5,46.5 C 219.766,47.7079 219.433,49.0413 219.5,50.5C 221.06,50.4809 222.56,50.1476 224,49.5C 225,50.1667 226,50.8333 227,51.5C 228.3,50.548 229.467,50.548 230.5,51.5C 224.363,53.4353 218.363,55.7687 212.5,58.5C 211.167,59.1667 211.167,59.8333 212.5,60.5C 219.041,56.6185 226.041,54.4518 233.5,54C 228.42,55.8043 223.42,57.8043 218.5,60C 219.646,60.6449 220.646,61.4783 221.5,62.5C 223.575,61.2385 225.575,61.4052 227.5,63C 225.5,64 223.5,65 221.5,66C 225.075,65.8157 228.575,64.9823 232,63.5C 233,64.1667 234,64.8333 235,65.5C 236.578,64.4528 238.078,64.4528 239.5,65.5C 229.22,69.0299 219.554,73.6966 210.5,79.5C 211,79.8333 211.5,80.1667 212,80.5C 219.443,76.6821 227.277,74.5154 235.5,74C 232.41,75.3634 229.244,76.53 226,77.5C 224.392,77.9739 224.226,78.6406 225.5,79.5C 231.866,76.4284 238.532,74.9284 245.5,75C 238.061,77.0259 230.728,79.3593 223.5,82C 223.632,84.0467 223.465,86.2134 223,88.5C 226.887,86.2025 231.054,85.3692 235.5,86C 226.688,88.9377 218.021,92.271 209.5,96C 212.701,95.6713 215.867,94.838 219,93.5C 219.5,93.6667 220,93.8333 220.5,94C 217.136,95.6822 213.802,97.3489 210.5,99C 214.376,98.3317 218.209,97.1651 222,95.5C 222.5,95.8333 223,96.1667 223.5,96.5C 218.294,99.3694 218.96,100.703 225.5,100.5C 217.509,101.244 210.676,104.578 205,110.5C 204.306,114.554 204.473,118.554 205.5,122.5C 203.833,123.167 202.167,123.833 200.5,124.5C 201.23,126.045 202.563,126.878 204.5,127C 197.821,130.506 190.821,133.173 183.5,135C 181.253,136.277 179.253,137.777 177.5,139.5C 174.805,139.067 172.638,137.734 171,135.5C 169.419,132.249 168.086,128.915 167,125.5C 167.351,127.886 167.185,130.219 166.5,132.5C 164.857,129.505 162.523,128.839 159.5,130.5C 152.899,126.884 146.899,122.551 141.5,117.5C 142.496,117.414 143.329,117.748 144,118.5C 144.198,116.618 144.698,114.952 145.5,113.5C 145.343,114.873 145.51,116.207 146,117.5C 149.601,109.792 152.601,101.792 155,93.5C 156.663,89.5036 158.829,85.8369 161.5,82.5C 161.376,81.8933 161.043,81.56 160.5,81.5C 163.844,76.4919 168.51,73.4919 174.5,72.5C 174.047,73.4584 173.381,74.2917 172.5,75C 183.68,68.7433 195.347,62.91 207.5,57.5C 208.67,56.3061 208.337,55.6395 206.5,55.5C 210.324,54.1142 213.991,52.2808 217.5,50C 213.895,50.7838 210.228,51.6171 206.5,52.5C 210.844,49.9346 215.51,47.9346 220.5,46.5 Z"/></g>
<g><path style="opacity:1" fill="#df3b8a" d="M 305.5,53.5 C 304.262,53.81 304.262,54.31 305.5,55C 312.934,57.4351 318.101,62.2684 321,69.5C 321.494,67.8659 321.66,66.1992 321.5,64.5C 323.989,75.2893 325.989,86.2893 327.5,97.5C 325.366,102.878 322.366,107.878 318.5,112.5C 320.875,113.66 323.208,114.66 325.5,115.5C 315.996,114.976 306.662,113.476 297.5,111C 300.663,110.739 303.663,109.906 306.5,108.5C 308.801,109.396 311.134,109.562 313.5,109C 307.843,107.436 302.176,105.936 296.5,104.5C 297.333,104.167 298.167,103.833 299,103.5C 303.472,104.609 307.972,105.109 312.5,105C 308.385,103.795 304.385,102.295 300.5,100.5C 301.747,98.9579 301.747,97.4579 300.5,96C 305.477,96.795 310.477,97.4617 315.5,98C 310.283,96.4505 305.283,94.4505 300.5,92C 305.822,92.9965 311.156,93.9965 316.5,95C 313.199,93.4008 309.865,91.9008 306.5,90.5C 307.025,89.8076 307.692,89.3076 308.5,89C 306.051,88.2754 303.717,87.2754 301.5,86C 300.289,84.8869 300.289,83.7202 301.5,82.5C 300.311,81.5713 298.978,81.238 297.5,81.5C 297.52,79.857 296.853,78.5237 295.5,77.5C 297.645,76.3175 297.645,74.8175 295.5,73C 296.5,72.6667 297.5,72.3333 298.5,72C 296.065,71.147 293.731,70.147 291.5,69C 295.147,68.2255 298.814,67.5588 302.5,67C 299.212,65.4183 295.879,64.085 292.5,63C 293.793,62.51 295.127,62.3433 296.5,62.5C 296.5,61.5 296.5,60.5 296.5,59.5C 295.5,59.5 294.5,59.5 293.5,59.5C 293.024,57.0069 291.69,55.0069 289.5,53.5C 294.903,53.072 300.237,53.072 305.5,53.5 Z"/></g>
<g><path style="opacity:1" fill="#ecda0c" d="M 389.5,71.5 C 390.091,75.1166 390.424,78.7832 390.5,82.5C 390.483,85.9134 389.816,88.9134 388.5,91.5C 384.596,90.1906 380.596,89.1906 376.5,88.5C 378.796,82.3965 380.129,76.0632 380.5,69.5C 383.598,69.7556 386.598,70.4222 389.5,71.5 Z"/></g>
<g><path style="opacity:1" fill="#b4a50a" d="M 389.5,71.5 C 391.814,73.4773 394.147,75.4773 396.5,77.5C 397.348,79.4086 397.682,81.4086 397.5,83.5C 398.047,88.3549 398.047,93.0216 397.5,97.5C 394.477,95.4667 391.477,93.4667 388.5,91.5C 389.816,88.9134 390.483,85.9134 390.5,82.5C 390.424,78.7832 390.091,75.1166 389.5,71.5 Z"/></g>
<g><path style="opacity:1" fill="#51323d" d="M 265.5,79.5 C 273.802,78.181 280.302,80.8476 285,87.5C 287.346,90.7236 287.013,93.3903 284,95.5C 273.045,92.0759 261.879,89.7425 250.5,88.5C 255.298,85.0081 260.298,82.0081 265.5,79.5 Z"/></g>
<g><path style="opacity:1" fill="#aa9c09" d="M 109.5,81.5 C 107.5,81.5 105.5,81.5 103.5,81.5C 103.185,85.3714 103.518,89.0381 104.5,92.5C 100.692,94.6724 96.6916,96.6724 92.5,98.5C 91.6066,93.1004 92.1066,87.7671 94,82.5C 96.3834,81.2343 99.05,80.5676 102,80.5C 104.69,80.5029 107.19,80.8362 109.5,81.5 Z"/></g>
<g><path style="opacity:1" fill="#ebd90c" d="M 109.5,81.5 C 109.674,83.861 110.007,86.1944 110.5,88.5C 108.853,90.3264 106.853,91.6597 104.5,92.5C 103.518,89.0381 103.185,85.3714 103.5,81.5C 105.5,81.5 107.5,81.5 109.5,81.5 Z"/></g>
<g><path style="opacity:1" fill="#17080f" d="M 160.5,81.5 C 161.043,81.56 161.376,81.8933 161.5,82.5C 158.829,85.8369 156.663,89.5036 155,93.5C 152.601,101.792 149.601,109.792 146,117.5C 145.51,116.207 145.343,114.873 145.5,113.5C 145.5,112.167 145.5,110.833 145.5,109.5C 146.491,104.95 147.491,100.283 148.5,95.5C 151.102,89.6263 155.102,84.9596 160.5,81.5 Z"/></g>
<g><path style="opacity:1" fill="#696107" d="M 109.5,81.5 C 111.312,83.7134 111.645,86.0467 110.5,88.5C 110.007,86.1944 109.674,83.861 109.5,81.5 Z"/></g>
<g><path style="opacity:1" fill="#f1de0d" d="M 387.5,103.5 C 386.743,109.219 385.076,114.552 382.5,119.5C 376.805,115.986 370.805,112.986 364.5,110.5C 363.833,109.833 363.167,109.167 362.5,108.5C 365.811,104.021 369.311,99.6879 373,95.5C 378.247,97.5374 383.08,100.204 387.5,103.5 Z"/></g>
<g><path style="opacity:1" fill="#6d6407" d="M 397.5,83.5 C 399.121,88.604 399.621,93.9373 399,99.5C 398.283,98.9558 397.783,98.2891 397.5,97.5C 398.047,93.0216 398.047,88.3549 397.5,83.5 Z"/></g>
<g><path style="opacity:1" fill="#aea12d" d="M 239.5,97.5 C 242.247,97.1866 244.914,97.52 247.5,98.5C 246.167,98.8333 244.833,99.1667 243.5,99.5C 241.667,99.4146 240.334,98.7479 239.5,97.5 Z"/></g>
<g><path style="opacity:1" fill="#1a0a11" d="M 327.5,97.5 C 327.596,104.573 328.929,111.407 331.5,118C 331.167,118.5 330.833,119 330.5,119.5C 328.79,118.113 327.123,116.779 325.5,115.5C 323.208,114.66 320.875,113.66 318.5,112.5C 322.366,107.878 325.366,102.878 327.5,97.5 Z"/></g>
<g><path style="opacity:1" fill="#f4e00d" d="M 109.5,122.5 C 107.063,116.417 105.73,110.084 105.5,103.5C 107.38,103.771 108.713,103.104 109.5,101.5C 111.676,99.7012 114.01,99.3679 116.5,100.5C 118.515,103.871 120.515,107.205 122.5,110.5C 119.433,115.901 115.1,119.901 109.5,122.5 Z"/></g>
<g><path style="opacity:1" fill="#b3a409" d="M 109.5,101.5 C 108.713,103.104 107.38,103.771 105.5,103.5C 105.73,110.084 107.063,116.417 109.5,122.5C 106.402,124.892 103.069,127.058 99.5,129C 97.2346,130.118 94.9013,130.951 92.5,131.5C 90.858,122.924 90.1913,114.257 90.5,105.5C 97.004,104.933 103.337,103.599 109.5,101.5 Z"/></g>
<g><path style="opacity:1" fill="#b4a50a" d="M 387.5,103.5 C 391.958,108.236 395.291,113.736 397.5,120C 396.244,124.775 394.411,129.275 392,133.5C 389.394,128.405 386.228,123.738 382.5,119.5C 385.076,114.552 386.743,109.219 387.5,103.5 Z"/></g>
<g><path style="opacity:1" fill="#75214e" d="M 148.5,95.5 C 147.491,100.283 146.491,104.95 145.5,109.5C 145.044,104.404 146.044,99.7378 148.5,95.5 Z"/></g>
<g><path style="opacity:1" fill="#6d6406" d="M 362.5,108.5 C 363.167,109.167 363.833,109.833 364.5,110.5C 363.325,110.719 362.325,110.386 361.5,109.5C 361.624,108.893 361.957,108.56 362.5,108.5 Z"/></g>
<g><path style="opacity:1" fill="#db3e92" d="M 230.5,107.5 C 227.286,108.282 223.952,109.115 220.5,110C 221.448,110.483 222.448,110.649 223.5,110.5C 220.773,111.705 218.273,113.372 216,115.5C 215.37,117.903 216.203,119.737 218.5,121C 223.628,121.708 228.628,121.208 233.5,119.5C 235.308,119.509 236.975,119.009 238.5,118C 232.175,117.5 225.842,117.334 219.5,117.5C 219.511,115.983 220.177,114.816 221.5,114C 224.731,113.139 227.731,111.972 230.5,110.5C 234.217,114.283 237.884,117.283 241.5,119.5C 234.484,121.008 227.484,123.008 220.5,125.5C 215.047,124.547 211.714,121.38 210.5,116C 210.439,114.289 211.106,112.956 212.5,112C 218.03,108.771 224.03,107.271 230.5,107.5 Z"/></g>
<g><path style="opacity:1" fill="#331222" d="M 223.5,110.5 C 225.833,110.5 228.167,110.5 230.5,110.5C 227.731,111.972 224.731,113.139 221.5,114C 220.177,114.816 219.511,115.983 219.5,117.5C 224.167,118.167 228.833,118.833 233.5,119.5C 228.628,121.208 223.628,121.708 218.5,121C 216.203,119.737 215.37,117.903 216,115.5C 218.273,113.372 220.773,111.705 223.5,110.5 Z"/></g>
<g><path style="opacity:1" fill="#f3df0d" d="M 376.5,129.5 C 374.839,137.167 370.506,142.834 363.5,146.5C 358.166,139 351.666,132.667 344,127.5C 343.333,126.5 343.333,125.5 344,124.5C 348.059,120.77 352.392,117.436 357,114.5C 365.374,117.248 371.874,122.248 376.5,129.5 Z"/></g>
<g><path style="opacity:1" fill="#601b3f" d="M 288.5,117.5 C 274.762,117.08 261.095,117.747 247.5,119.5C 250.534,117.982 253.867,117.149 257.5,117C 268.008,116.175 278.342,116.341 288.5,117.5 Z"/></g>
<g><path style="opacity:1" fill="#761f4a" d="M 219.5,117.5 C 225.842,117.334 232.175,117.5 238.5,118C 236.975,119.009 235.308,119.509 233.5,119.5C 228.833,118.833 224.167,118.167 219.5,117.5 Z"/></g>
<g><path style="opacity:1" fill="#f1de0d" d="M 126.5,145.5 C 124.629,145.141 123.129,144.141 122,142.5C 119.306,139.108 117.14,135.441 115.5,131.5C 121.056,128.464 126.223,124.797 131,120.5C 134.572,123.04 138.072,125.707 141.5,128.5C 138.109,135.635 133.109,141.302 126.5,145.5 Z"/></g>
<g><path style="opacity:1" fill="#24141b" d="M 184.5,120.5 C 187.207,123.247 188.873,126.58 189.5,130.5C 188.07,130.579 186.736,130.246 185.5,129.5C 184.614,130.325 184.281,131.325 184.5,132.5C 181.45,131.923 179.45,133.09 178.5,136C 176.888,136.72 175.388,136.554 174,135.5C 171.861,131.968 171.027,128.302 171.5,124.5C 173.436,127.456 175.436,130.456 177.5,133.5C 179.046,132.788 180.046,131.622 180.5,130C 178.74,127.315 177.406,124.482 176.5,121.5C 179.168,121.666 181.502,122.666 183.5,124.5C 184.429,123.311 184.762,121.978 184.5,120.5 Z"/></g>
<g><path style="opacity:1" fill="#211319" d="M 200.5,124.5 C 198.063,124.886 196.063,126.053 194.5,128C 193.5,128.667 192.5,128.667 191.5,128C 190.605,124.905 190.605,121.738 191.5,118.5C 189.5,118.833 187.5,119.167 185.5,119.5C 185.281,118.325 185.614,117.325 186.5,116.5C 194.128,112.351 196.795,114.351 194.5,122.5C 196.135,123.681 197.802,123.681 199.5,122.5C 200.298,122.957 200.631,123.624 200.5,124.5 Z"/></g>
<g><path style="opacity:1" fill="#f70200" d="M 307.5,126.5 C 312.257,131.796 316.924,137.296 321.5,143C 320.829,143.986 320.829,145.153 321.5,146.5C 323.654,151.479 325.821,156.479 328,161.5C 328.49,160.207 328.657,158.873 328.5,157.5C 329.341,156.991 329.841,157.657 330,159.5C 330.333,158.5 330.667,157.5 331,156.5C 331.037,158.974 331.87,160.974 333.5,162.5C 335.927,169.211 337.593,176.211 338.5,183.5C 338.41,186.152 339.076,188.485 340.5,190.5C 341.804,194.36 342.471,198.36 342.5,202.5C 342.968,208.329 343.635,213.996 344.5,219.5C 346.01,220.728 347.51,220.728 349,219.5C 350.144,214.233 351.978,209.233 354.5,204.5C 360.363,236.261 356.863,266.928 344,296.5C 340.741,302.692 337.241,308.692 333.5,314.5C 332.127,314.343 330.793,314.51 329.5,315C 325.952,320.891 321.618,326.224 316.5,331C 311.863,332.458 308.196,335.292 305.5,339.5C 294.346,344.38 283.012,348.38 271.5,351.5C 270.833,351.5 270.167,351.5 269.5,351.5C 253.352,352.213 238.352,348.38 224.5,340C 198.962,322.939 181.962,299.606 173.5,270C 174.252,269.329 174.586,268.496 174.5,267.5C 174.557,266.391 174.89,265.391 175.5,264.5C 179.246,261.839 179.246,259.339 175.5,257C 176.553,252.158 176.219,247.325 174.5,242.5C 174.981,239.917 175.648,237.417 176.5,235C 175.584,234.722 174.918,234.222 174.5,233.5C 175.458,232.038 176.624,230.705 178,229.5C 178.554,223.812 178.387,218.145 177.5,212.5C 176.93,204.846 176.596,197.179 176.5,189.5C 186.861,176.962 190.028,162.962 186,147.5C 199.655,139.78 214.155,134.113 229.5,130.5C 240.443,132.283 251.443,132.783 262.5,132C 273.813,130.117 284.98,127.617 296,124.5C 299.83,125.25 303.663,125.917 307.5,126.5 Z"/></g>
<g><path style="opacity:1" fill="#e70304" d="M 307.5,126.5 C 311.163,127.266 314.829,128.1 318.5,129C 327.827,138.118 332.827,149.284 333.5,162.5C 331.87,160.974 331.037,158.974 331,156.5C 330.667,157.5 330.333,158.5 330,159.5C 329.841,157.657 329.341,156.991 328.5,157.5C 326.775,154.375 325.275,151.042 324,147.5C 323.329,146.748 322.496,146.414 321.5,146.5C 320.829,145.153 320.829,143.986 321.5,143C 316.924,137.296 312.257,131.796 307.5,126.5 Z"/></g>
<g><path style="opacity:1" fill="#f045a2" d="M 205.5,122.5 C 206.823,124.471 208.156,126.471 209.5,128.5C 199.251,133.306 188.917,137.472 178.5,141C 177.944,140.617 177.611,140.117 177.5,139.5C 179.253,137.777 181.253,136.277 183.5,135C 190.821,133.173 197.821,130.506 204.5,127C 202.563,126.878 201.23,126.045 200.5,124.5C 202.167,123.833 203.833,123.167 205.5,122.5 Z"/></g>
<g><path style="opacity:1" fill="#b3a30a" d="M 376.5,129.5 C 380.828,135.02 382.661,141.353 382,148.5C 377.652,153.015 373.152,157.349 368.5,161.5C 368.197,155.98 366.53,150.98 363.5,146.5C 370.506,142.834 374.839,137.167 376.5,129.5 Z"/></g>
<g><path style="opacity:1" fill="#630001" d="M 279.5,135.5 C 276.847,137.155 274.514,139.155 272.5,141.5C 273.435,139.139 274.768,136.972 276.5,135C 277.749,134.26 278.749,134.427 279.5,135.5 Z"/></g>
<g><path style="opacity:1" fill="#f1de0d" d="M 148.5,163.5 C 142.592,161.241 137.925,157.575 134.5,152.5C 141.162,148.004 146.662,142.337 151,135.5C 153.57,137.538 156.404,139.205 159.5,140.5C 160.441,150.288 156.774,157.955 148.5,163.5 Z"/></g>
<g><path style="opacity:1" fill="#0b0703" d="M 328.5,199.5 C 327.249,197.618 326.082,195.618 325,193.5C 322.569,198.558 321.402,203.891 321.5,209.5C 320.762,204.125 319.762,198.791 318.5,193.5C 318.46,188.807 318.127,184.141 317.5,179.5C 317.59,176.848 316.924,174.515 315.5,172.5C 315.053,163.107 311.053,155.607 303.5,150C 301.866,149.506 300.199,149.34 298.5,149.5C 298.023,153.866 299.856,156.866 304,158.5C 306.91,163.16 308.743,168.16 309.5,173.5C 309.753,177.04 310.419,180.373 311.5,183.5C 312.441,188.07 312.774,192.737 312.5,197.5C 311.833,196.167 311.167,194.833 310.5,193.5C 307.876,188.876 304.209,185.209 299.5,182.5C 299.167,182.833 298.833,183.167 298.5,183.5C 300.663,186.491 301.663,189.824 301.5,193.5C 300.529,198.516 299.363,203.516 298,208.5C 297.667,205.167 297.333,201.833 297,198.5C 296.64,196.579 295.806,194.912 294.5,193.5C 292.259,198.317 289.759,202.983 287,207.5C 284.525,201.518 280.858,196.518 276,192.5C 275.5,192.833 275,193.167 274.5,193.5C 275.531,194.7 276.365,196.034 277,197.5C 277.499,201.486 277.666,205.486 277.5,209.5C 276.348,208.375 275.348,208.375 274.5,209.5C 274.5,210.167 274.167,210.5 273.5,210.5C 269.949,195.584 269.616,180.584 272.5,165.5C 274.003,161.659 275.336,157.659 276.5,153.5C 283.837,135.309 295.17,132.143 310.5,144C 322.69,160.406 328.69,178.906 328.5,199.5 Z"/></g>
<g><path style="opacity:1" fill="#1e0400" d="M 279.5,135.5 C 280.573,136.251 280.74,137.251 280,138.5C 275.922,142.984 272.589,147.984 270,153.5C 269.275,149.081 270.108,145.081 272.5,141.5C 274.514,139.155 276.847,137.155 279.5,135.5 Z"/></g>
<g><path style="opacity:1" fill="#0a0502" d="M 267.5,206.5 C 265.704,204.1 263.37,202.433 260.5,201.5C 261.351,185.241 257.517,170.241 249,156.5C 247.285,153.603 244.785,152.269 241.5,152.5C 241.201,154.604 241.534,156.604 242.5,158.5C 248.881,166.282 252.215,175.282 252.5,185.5C 251.909,190.442 250.409,195.108 248,199.5C 247.501,203.152 247.335,206.818 247.5,210.5C 246.833,209.167 246.167,207.833 245.5,206.5C 244.467,201.432 242.133,197.098 238.5,193.5C 236.695,198.915 234.695,204.248 232.5,209.5C 232.167,209.167 231.833,208.833 231.5,208.5C 232.6,204.558 232.767,200.558 232,196.5C 231.073,190.569 229.406,184.902 227,179.5C 225.432,188.112 223.099,196.446 220,204.5C 221.448,199.64 220.114,195.64 216,192.5C 215.605,195.207 215.105,197.873 214.5,200.5C 213.5,202.5 212.5,204.5 211.5,206.5C 211.802,203.941 211.468,201.607 210.5,199.5C 210.464,190.815 210.797,182.149 211.5,173.5C 211.366,171.708 211.699,170.042 212.5,168.5C 214.411,164.767 215.744,160.767 216.5,156.5C 219.153,150.006 223.486,144.84 229.5,141C 236.141,139.594 242.141,140.927 247.5,145C 256.306,153.773 262.14,164.273 265,176.5C 267.446,186.552 268.279,196.552 267.5,206.5 Z"/></g>
<g><path style="opacity:1" fill="#ebd90c" d="M 353.5,151.5 C 353.5,154.833 351.833,156.5 348.5,156.5C 345.944,151.731 343.11,147.064 340,142.5C 339.5,139 341,137.5 344.5,138C 348.533,141.856 351.533,146.356 353.5,151.5 Z"/></g>
<g><path style="opacity:1" fill="#b1a209" d="M 115.5,131.5 C 117.14,135.441 119.306,139.108 122,142.5C 123.129,144.141 124.629,145.141 126.5,145.5C 120.898,149.643 114.898,153.31 108.5,156.5C 102.858,151.194 98.8581,144.861 96.5,137.5C 102.966,135.9 109.299,133.9 115.5,131.5 Z"/></g>
<g><path style="opacity:1" fill="#240500" d="M 202.5,166.5 C 203.924,164.485 204.59,162.152 204.5,159.5C 206.271,155.621 207.771,151.621 209,147.5C 210.264,145.393 212.097,144.393 214.5,144.5C 208.04,157.997 204.207,172.33 203,187.5C 202.5,180.508 202.334,173.508 202.5,166.5 Z"/></g>
<g><path style="opacity:1" fill="#60511e" d="M 334.5,144.5 C 336.054,145.914 337.388,147.581 338.5,149.5C 338.167,150.5 337.5,151.167 336.5,151.5C 335.579,149.223 334.913,146.89 334.5,144.5 Z"/></g>
<g><path style="opacity:1" fill="#260600" d="M 321.5,146.5 C 322.496,146.414 323.329,146.748 324,147.5C 325.275,151.042 326.775,154.375 328.5,157.5C 328.657,158.873 328.49,160.207 328,161.5C 325.821,156.479 323.654,151.479 321.5,146.5 Z"/></g>
<g><path style="opacity:1" fill="#efdc0d" d="M 178.5,169.5 C 177.069,170.903 175.902,172.569 175,174.5C 169.973,172.774 165.14,170.774 160.5,168.5C 166.556,162.371 170.556,155.037 172.5,146.5C 175.19,148.356 177.356,150.689 179,153.5C 179.781,158.917 179.615,164.25 178.5,169.5 Z"/></g>
<g><path style="opacity:1" fill="#f1f0eb" d="M 315.5,172.5 C 315.41,175.152 316.076,177.485 317.5,179.5C 318.127,184.141 318.46,188.807 318.5,193.5C 318.002,198.152 317.669,202.819 317.5,207.5C 316.226,209.993 315.56,212.659 315.5,215.5C 314.262,217.214 313.595,219.214 313.5,221.5C 311.645,224.554 310.312,227.888 309.5,231.5C 308.341,232.456 307.174,233.456 306,234.5C 304.97,234.164 304.47,233.497 304.5,232.5C 305.931,231.22 306.598,229.553 306.5,227.5C 307.345,226.329 308.011,224.995 308.5,223.5C 309.301,221.958 309.634,220.292 309.5,218.5C 312.088,212.628 313.088,206.295 312.5,199.5C 312.5,198.833 312.5,198.167 312.5,197.5C 312.774,192.737 312.441,188.07 311.5,183.5C 311.664,180.813 311.497,178.146 311,175.5C 310.722,174.584 310.222,173.918 309.5,173.5C 308.743,168.16 306.91,163.16 304,158.5C 299.856,156.866 298.023,153.866 298.5,149.5C 300.199,149.34 301.866,149.506 303.5,150C 311.053,155.607 315.053,163.107 315.5,172.5 Z"/></g>
<g><path style="opacity:1" fill="#f2f0ec" d="M 260.5,201.5 C 260.54,209.187 260.207,216.854 259.5,224.5C 258.19,227.399 256.857,230.399 255.5,233.5C 254.5,234.833 253.5,234.833 252.5,233.5C 253.246,232.264 253.579,230.93 253.5,229.5C 254.404,228.791 254.737,227.791 254.5,226.5C 255.15,224.565 255.483,222.565 255.5,220.5C 255.666,212.826 255.5,205.159 255,197.5C 254.665,193.264 253.832,189.264 252.5,185.5C 252.215,175.282 248.881,166.282 242.5,158.5C 241.534,156.604 241.201,154.604 241.5,152.5C 244.785,152.269 247.285,153.603 249,156.5C 257.517,170.241 261.351,185.241 260.5,201.5 Z"/></g>
<g><path style="opacity:1" fill="#8c0003" d="M 276.5,153.5 C 275.336,157.659 274.003,161.659 272.5,165.5C 272.47,160.921 273.804,156.921 276.5,153.5 Z"/></g>
<g><path style="opacity:1" fill="#b3a40a" d="M 353.5,151.5 C 354.458,153.302 355.125,155.302 355.5,157.5C 356.089,161.971 355.423,165.971 353.5,169.5C 352.099,165.036 350.432,160.703 348.5,156.5C 351.833,156.5 353.5,154.833 353.5,151.5 Z"/></g>
<g><path style="opacity:1" fill="#b0a209" d="M 134.5,152.5 C 137.925,157.575 142.592,161.241 148.5,163.5C 143.78,168.371 138.446,172.538 132.5,176C 129.261,175.554 126.261,174.221 123.5,172C 119.644,168.9 115.977,165.567 112.5,162C 119.864,158.933 127.198,155.766 134.5,152.5 Z"/></g>
<g><path style="opacity:1" fill="#4e0601" d="M 216.5,156.5 C 215.744,160.767 214.411,164.767 212.5,168.5C 212.861,164.085 214.194,160.085 216.5,156.5 Z"/></g>
<g><path style="opacity:1" fill="#6d6406" d="M 355.5,157.5 C 356.485,161.634 356.818,165.968 356.5,170.5C 355.209,170.737 354.209,170.404 353.5,169.5C 355.423,165.971 356.089,161.971 355.5,157.5 Z"/></g>
<g><path style="opacity:1" fill="#870002" d="M 204.5,159.5 C 204.59,162.152 203.924,164.485 202.5,166.5C 202.41,163.848 203.076,161.515 204.5,159.5 Z"/></g>
<g><path style="opacity:1" fill="#b0a109" d="M 160.5,168.5 C 165.14,170.774 169.973,172.774 175,174.5C 175.902,172.569 177.069,170.903 178.5,169.5C 174.327,183.423 164.994,189.589 150.5,188C 146.504,186.337 142.837,184.171 139.5,181.5C 146.962,177.935 153.962,173.601 160.5,168.5 Z"/></g>
<g><path style="opacity:1" fill="#ac9b30" d="M 345.5,164.5 C 345.462,167.181 346.129,169.681 347.5,172C 347.43,172.765 347.097,173.265 346.5,173.5C 341.271,172.726 338.937,169.726 339.5,164.5C 341.5,164.5 343.5,164.5 345.5,164.5 Z"/></g>
<g><path style="opacity:1" fill="#5d4f1c" d="M 345.5,164.5 C 347.935,168.799 349.602,173.465 350.5,178.5C 349.833,179.167 349.167,179.833 348.5,180.5C 348.834,177.812 348.168,175.479 346.5,173.5C 347.097,173.265 347.43,172.765 347.5,172C 346.129,169.681 345.462,167.181 345.5,164.5 Z"/></g>
<g><path style="opacity:1" fill="#767676" d="M 309.5,173.5 C 310.222,173.918 310.722,174.584 311,175.5C 311.497,178.146 311.664,180.813 311.5,183.5C 310.419,180.373 309.753,177.04 309.5,173.5 Z"/></g>
<g><path style="opacity:1" fill="#7f807f" d="M 315.5,172.5 C 316.924,174.515 317.59,176.848 317.5,179.5C 316.076,177.485 315.41,175.152 315.5,172.5 Z"/></g>
<g><path style="opacity:1" fill="#b70102" d="M 272.5,165.5 C 269.616,180.584 269.949,195.584 273.5,210.5C 273.5,211.167 273.5,211.833 273.5,212.5C 270.74,204.024 269.407,195.19 269.5,186C 269.557,180.127 270.057,174.293 271,168.5C 271.232,167.263 271.732,166.263 272.5,165.5 Z"/></g>
<g><path style="opacity:1" fill="#c4b732" d="M 350.5,178.5 C 350.433,180.401 350.767,182.234 351.5,184C 349.982,185.351 348.649,186.851 347.5,188.5C 346.883,188.611 346.383,188.944 346,189.5C 345.51,188.207 345.343,186.873 345.5,185.5C 346.248,183.668 347.248,182.001 348.5,180.5C 349.167,179.833 349.833,179.167 350.5,178.5 Z"/></g>
<g><path style="opacity:1" fill="#e3419a" d="M 123.5,186.5 C 106.929,189.788 92.262,196.788 79.5,207.5C 70.5532,213.104 64.2198,220.771 60.5,230.5C 59.8423,229.602 59.1757,228.602 58.5,227.5C 56.7711,229.851 56.1044,232.518 56.5,235.5C 55.3659,233.034 55.1993,230.367 56,227.5C 70.3727,205.053 90.5394,190.553 116.5,184C 120.167,183.333 123.833,183.333 127.5,184C 130.672,185.752 133.672,187.752 136.5,190C 135.975,190.692 135.308,191.192 134.5,191.5C 131.886,187.56 128.22,185.894 123.5,186.5 Z"/></g>
<g><path style="opacity:1" fill="#dbd334" d="M 287.5,178.5 C 288.376,178.369 289.043,178.702 289.5,179.5C 288.045,183.319 288.378,186.985 290.5,190.5C 288.125,193.123 285.959,192.789 284,189.5C 283.833,188.667 283.667,187.833 283.5,187C 284.218,183.81 285.551,180.977 287.5,178.5 Z"/></g>
<g><path style="opacity:1" fill="#f4e53a" d="M 310.5,193.5 C 309.865,196.493 309.699,199.493 310,202.5C 310.852,201.429 311.685,200.429 312.5,199.5C 313.088,206.295 312.088,212.628 309.5,218.5C 305.466,218.672 301.466,219.172 297.5,220C 291.243,222.474 284.91,224.641 278.5,226.5C 276.313,222.105 274.647,217.439 273.5,212.5C 273.5,211.833 273.5,211.167 273.5,210.5C 274.167,210.5 274.5,210.167 274.5,209.5C 275.459,214.659 276.459,214.659 277.5,209.5C 277.666,205.486 277.499,201.486 277,197.5C 276.365,196.034 275.531,194.7 274.5,193.5C 275,193.167 275.5,192.833 276,192.5C 280.858,196.518 284.525,201.518 287,207.5C 289.759,202.983 292.259,198.317 294.5,193.5C 295.806,194.912 296.64,196.579 297,198.5C 297.333,201.833 297.667,205.167 298,208.5C 299.363,203.516 300.529,198.516 301.5,193.5C 301.663,189.824 300.663,186.491 298.5,183.5C 298.833,183.167 299.167,182.833 299.5,182.5C 304.209,185.209 307.876,188.876 310.5,193.5 Z"/></g>
<g><path style="opacity:1" fill="#a20001" d="M 211.5,173.5 C 210.797,182.149 210.464,190.815 210.5,199.5C 209.835,196.351 209.502,193.018 209.5,189.5C 209.368,183.923 210.035,178.59 211.5,173.5 Z"/></g>
<g><path style="opacity:1" fill="#f4e539" d="M 245.5,206.5 C 245.336,209.187 245.503,211.854 246,214.5C 246.791,213.255 247.291,211.922 247.5,210.5C 247.335,206.818 247.501,203.152 248,199.5C 250.409,195.108 251.909,190.442 252.5,185.5C 253.832,189.264 254.665,193.264 255,197.5C 255.5,205.159 255.666,212.826 255.5,220.5C 241.93,216.071 228.597,216.738 215.5,222.5C 213.754,218.111 212.754,213.444 212.5,208.5C 213.774,206.007 214.44,203.341 214.5,200.5C 215.105,197.873 215.605,195.207 216,192.5C 220.114,195.64 221.448,199.64 220,204.5C 223.099,196.446 225.432,188.112 227,179.5C 229.406,184.902 231.073,190.569 232,196.5C 232.767,200.558 232.6,204.558 231.5,208.5C 231.833,208.833 232.167,209.167 232.5,209.5C 234.695,204.248 236.695,198.915 238.5,193.5C 242.133,197.098 244.467,201.432 245.5,206.5 Z"/></g>
<g><path style="opacity:1" fill="#9a9525" d="M 238.5,182.5 C 243.27,183.907 244.936,186.907 243.5,191.5C 242.067,188.293 240.4,185.293 238.5,182.5 Z"/></g>
<g><path style="opacity:1" fill="#890002" d="M 338.5,183.5 C 339.924,185.515 340.59,187.848 340.5,190.5C 339.076,188.485 338.41,186.152 338.5,183.5 Z"/></g>
<g><path style="opacity:1" fill="#60521c" d="M 345.5,185.5 C 345.343,186.873 345.51,188.207 346,189.5C 346.383,188.944 346.883,188.611 347.5,188.5C 347.401,191.237 347.735,193.904 348.5,196.5C 347.833,196.5 347.5,196.833 347.5,197.5C 344.897,193.732 344.231,189.732 345.5,185.5 Z"/></g>
<g><path style="opacity:1" fill="#f00000" d="M 367.5,231.5 C 366.515,227.366 366.182,223.032 366.5,218.5C 374.46,209.37 382.627,200.37 391,191.5C 392.088,206.594 391.422,221.594 389,236.5C 385.787,249.549 377.62,257.216 364.5,259.5C 364.243,253.102 364.743,246.769 366,240.5C 366.414,240.043 366.914,239.709 367.5,239.5C 371.915,243.822 376.748,244.489 382,241.5C 382.825,239.299 382.325,237.466 380.5,236C 378.1,235.814 375.766,235.314 373.5,234.5C 377.151,230.348 380.984,226.348 385,222.5C 387.765,216.601 385.932,214.101 379.5,215C 375.613,220.618 371.613,226.118 367.5,231.5 Z"/></g>
<g><path style="opacity:1" fill="#ad3377" d="M 138.5,191.5 C 139.496,191.414 140.329,191.748 141,192.5C 141.798,194.259 141.631,195.926 140.5,197.5C 138.717,195.977 138.051,193.977 138.5,191.5 Z"/></g>
<g><path style="opacity:1" fill="#6b671b" d="M 310.5,193.5 C 311.167,194.833 311.833,196.167 312.5,197.5C 312.5,198.167 312.5,198.833 312.5,199.5C 311.685,200.429 310.852,201.429 310,202.5C 309.699,199.493 309.865,196.493 310.5,193.5 Z"/></g>
<g><path style="opacity:1" fill="#f7e43b" d="M 328.5,199.5 C 328.622,208.309 327.622,216.975 325.5,225.5C 324.732,224.737 324.232,223.737 324,222.5C 323.667,222.833 323.333,223.167 323,223.5C 320.159,222.58 317.326,221.58 314.5,220.5C 315.309,218.929 315.643,217.262 315.5,215.5C 315.56,212.659 316.226,209.993 317.5,207.5C 318.309,205.708 318.809,203.708 319,201.5C 319.179,204.553 319.679,207.553 320.5,210.5C 321.107,210.376 321.44,210.043 321.5,209.5C 321.402,203.891 322.569,198.558 325,193.5C 326.082,195.618 327.249,197.618 328.5,199.5 Z"/></g>
<g><path style="opacity:1" fill="#e03c8b" d="M 123.5,186.5 C 123.217,187.289 122.717,187.956 122,188.5C 121.5,196.827 121.334,205.16 121.5,213.5C 120.513,208.695 120.179,203.695 120.5,198.5C 116.204,199.43 111.87,200.263 107.5,201C 100.522,204.816 93.5219,208.482 86.5,212C 85.3333,213.167 84.1667,214.333 83,215.5C 82.586,215.043 82.086,214.709 81.5,214.5C 79.3379,216.02 77.0046,217.02 74.5,217.5C 75.713,214.775 77.5464,212.441 80,210.5C 80.7401,209.251 80.5735,208.251 79.5,207.5C 92.262,196.788 106.929,189.788 123.5,186.5 Z"/></g>
<g><path style="opacity:1" fill="#550000" d="M 176.5,189.5 C 176.596,197.179 176.93,204.846 177.5,212.5C 175.525,204.884 175.192,197.217 176.5,189.5 Z"/></g>
<g><path style="opacity:1" fill="#f947a8" d="M 121.5,213.5 C 121.789,217.106 121.456,220.606 120.5,224C 101.833,230.625 82.6665,235.125 63,237.5C 60.4563,237.664 58.2897,236.997 56.5,235.5C 56.1044,232.518 56.7711,229.851 58.5,227.5C 59.1757,228.602 59.8423,229.602 60.5,230.5C 62.913,231.111 65.413,231.445 68,231.5C 73.2069,231.072 78.3736,230.405 83.5,229.5C 85.5643,229.313 87.5643,228.813 89.5,228C 82.1742,227.5 74.8409,227.334 67.5,227.5C 67.9245,223.317 70.2578,219.983 74.5,217.5C 77.0046,217.02 79.3379,216.02 81.5,214.5C 82.086,214.709 82.586,215.043 83,215.5C 84.1667,214.333 85.3333,213.167 86.5,212C 93.5219,208.482 100.522,204.816 107.5,201C 111.87,200.263 116.204,199.43 120.5,198.5C 120.179,203.695 120.513,208.695 121.5,213.5 Z"/></g>
<g><path style="opacity:1" fill="#b9aa31" d="M 348.5,196.5 C 350.941,198.963 351.107,201.629 349,204.5C 348.023,202.26 347.523,199.927 347.5,197.5C 347.5,196.833 347.833,196.5 348.5,196.5 Z"/></g>
<g><path style="opacity:1" fill="#ede637" d="M 153.5,197.5 C 156.793,198.809 160.126,200.142 163.5,201.5C 164.919,202.451 166.585,202.784 168.5,202.5C 168.802,205.059 168.468,207.393 167.5,209.5C 166.127,209.343 164.793,209.51 163.5,210C 161.983,211.685 160.316,213.185 158.5,214.5C 156.479,213.145 154.812,211.479 153.5,209.5C 153.5,205.5 153.5,201.5 153.5,197.5 Z"/></g>
<g><path style="opacity:1" fill="#8b7e1e" d="M 214.5,200.5 C 214.44,203.341 213.774,206.007 212.5,208.5C 211.662,208.158 211.328,207.492 211.5,206.5C 212.5,204.5 213.5,202.5 214.5,200.5 Z"/></g>
<g><path style="opacity:1" fill="#950103" d="M 132.5,203.5 C 131.517,207.298 131.183,211.298 131.5,215.5C 130.189,211.317 130.189,206.984 131.5,202.5C 132.107,202.624 132.44,202.957 132.5,203.5 Z"/></g>
<g><path style="opacity:1" fill="#ed0404" d="M 132.5,203.5 C 141.329,212.161 150.329,220.661 159.5,229C 162.167,230.667 164.833,232.333 167.5,234C 169.885,234.556 172.218,234.39 174.5,233.5C 174.918,234.222 175.584,234.722 176.5,235C 175.648,237.417 174.981,239.917 174.5,242.5C 176.219,247.325 176.553,252.158 175.5,257C 179.246,259.339 179.246,261.839 175.5,264.5C 176.519,262.46 176.519,260.46 175.5,258.5C 172.683,261.818 169.683,264.985 166.5,268C 156.845,269.943 148.678,267.109 142,259.5C 138.901,254.875 136.568,249.875 135,244.5C 133.178,234.904 132.011,225.237 131.5,215.5C 131.183,211.298 131.517,207.298 132.5,203.5 Z"/></g>
<g><path style="opacity:1" fill="#908029" d="M 153.5,197.5 C 153.5,201.5 153.5,205.5 153.5,209.5C 152.351,209.209 151.684,208.376 151.5,207C 151.946,203.65 152.612,200.483 153.5,197.5 Z"/></g>
<g><path style="opacity:1" fill="#d3cb5d" d="M 318.5,193.5 C 319.762,198.791 320.762,204.125 321.5,209.5C 321.44,210.043 321.107,210.376 320.5,210.5C 319.679,207.553 319.179,204.553 319,201.5C 318.809,203.708 318.309,205.708 317.5,207.5C 317.669,202.819 318.002,198.152 318.5,193.5 Z"/></g>
<g><path style="opacity:1" fill="#816e26" d="M 163.5,201.5 C 166.167,201.5 168.833,201.5 171.5,201.5C 172.293,205.213 172.293,208.88 171.5,212.5C 170.099,211.479 168.765,210.479 167.5,209.5C 168.468,207.393 168.802,205.059 168.5,202.5C 166.585,202.784 164.919,202.451 163.5,201.5 Z"/></g>
<g><path style="opacity:1" fill="#17080f" d="M 79.5,207.5 C 80.5735,208.251 80.7401,209.251 80,210.5C 77.5464,212.441 75.713,214.775 74.5,217.5C 70.2578,219.983 67.9245,223.317 67.5,227.5C 72.8333,228.167 78.1667,228.833 83.5,229.5C 78.3736,230.405 73.2069,231.072 68,231.5C 65.413,231.445 62.913,231.111 60.5,230.5C 64.2198,220.771 70.5532,213.104 79.5,207.5 Z"/></g>
<g><path style="opacity:1" fill="#5c5515" d="M 245.5,206.5 C 246.167,207.833 246.833,209.167 247.5,210.5C 247.291,211.922 246.791,213.255 246,214.5C 245.503,211.854 245.336,209.187 245.5,206.5 Z"/></g>
<g><path style="opacity:1" fill="#595414" d="M 274.5,209.5 C 275.348,208.375 276.348,208.375 277.5,209.5C 276.459,214.659 275.459,214.659 274.5,209.5 Z"/></g>
<g><path style="opacity:1" fill="#980002" d="M 342.5,202.5 C 343.268,203.263 343.768,204.263 344,205.5C 344.499,210.155 344.666,214.821 344.5,219.5C 343.635,213.996 342.968,208.329 342.5,202.5 Z"/></g>
<g><path style="opacity:1" fill="#fde846" d="M 260.5,201.5 C 263.37,202.433 265.704,204.1 267.5,206.5C 267.748,213.609 267.082,220.609 265.5,227.5C 262.911,227.539 260.911,226.539 259.5,224.5C 260.207,216.854 260.54,209.187 260.5,201.5 Z"/></g>
<g><path style="opacity:1" fill="#502620" d="M 168.5,218.5 C 172.099,219.68 173.432,222.013 172.5,225.5C 170.587,224.627 168.753,223.627 167,222.5C 167.143,221.135 167.643,219.802 168.5,218.5 Z"/></g>
<g><path style="opacity:1" fill="#fece3d" d="M 309.5,218.5 C 309.634,220.292 309.301,221.958 308.5,223.5C 298.522,223.938 289.188,226.604 280.5,231.5C 279.463,230.07 278.796,228.403 278.5,226.5C 284.91,224.641 291.243,222.474 297.5,220C 301.466,219.172 305.466,218.672 309.5,218.5 Z"/></g>
<g><path style="opacity:1" fill="#fed13b" d="M 255.5,220.5 C 255.483,222.565 255.15,224.565 254.5,226.5C 249.277,225.097 243.944,224.431 238.5,224.5C 231.369,224.701 224.369,225.701 217.5,227.5C 216.463,226.07 215.796,224.403 215.5,222.5C 228.597,216.738 241.93,216.071 255.5,220.5 Z"/></g>
<g><path style="opacity:1" fill="#fac33f" d="M 315.5,215.5 C 315.643,217.262 315.309,218.929 314.5,220.5C 317.326,221.58 320.159,222.58 323,223.5C 323.333,223.167 323.667,222.833 324,222.5C 324.232,223.737 324.732,224.737 325.5,225.5C 325.443,226.609 325.11,227.609 324.5,228.5C 320.722,226.908 316.722,226.074 312.5,226C 313.38,224.644 313.714,223.144 313.5,221.5C 313.595,219.214 314.262,217.214 315.5,215.5 Z"/></g>
<g><path style="opacity:1" fill="#130200" d="M 144.5,245.5 C 146.924,245.808 149.257,245.474 151.5,244.5C 151.376,243.893 151.043,243.56 150.5,243.5C 146.202,239.704 142.036,235.704 138,231.5C 136.833,226 139,223.833 144.5,225C 151.457,234.725 159.457,243.558 168.5,251.5C 169.386,252.325 169.719,253.325 169.5,254.5C 164.713,254.107 160.713,252.107 157.5,248.5C 153.923,252.293 149.589,253.793 144.5,253C 141.88,250.441 141.88,247.941 144.5,245.5 Z"/></g>
<g><path style="opacity:1" fill="#febe3b" d="M 254.5,226.5 C 254.737,227.791 254.404,228.791 253.5,229.5C 241.698,227.843 230.032,228.51 218.5,231.5C 217.766,230.292 217.433,228.959 217.5,227.5C 224.369,225.701 231.369,224.701 238.5,224.5C 243.944,224.431 249.277,225.097 254.5,226.5 Z"/></g>
<g><path style="opacity:1" fill="#9b0001" d="M 366.5,218.5 C 366.182,223.032 366.515,227.366 367.5,231.5C 367.44,232.043 367.107,232.376 366.5,232.5C 365.188,227.682 365.188,223.015 366.5,218.5 Z"/></g>
<g><path style="opacity:1" fill="#7f224e" d="M 67.5,227.5 C 74.8409,227.334 82.1742,227.5 89.5,228C 87.5643,228.813 85.5643,229.313 83.5,229.5C 78.1667,228.833 72.8333,228.167 67.5,227.5 Z"/></g>
<g><path style="opacity:1" fill="#f9b83a" d="M 308.5,223.5 C 308.011,224.995 307.345,226.329 306.5,227.5C 297.978,228.71 289.978,231.377 282.5,235.5C 281.326,234.486 280.66,233.153 280.5,231.5C 289.188,226.604 298.522,223.938 308.5,223.5 Z"/></g>
<g><path style="opacity:1" fill="#eaa23a" d="M 313.5,221.5 C 313.714,223.144 313.38,224.644 312.5,226C 316.722,226.074 320.722,226.908 324.5,228.5C 324.443,229.609 324.11,230.609 323.5,231.5C 318.833,231.5 314.167,231.5 309.5,231.5C 310.312,227.888 311.645,224.554 313.5,221.5 Z"/></g>
<g><path style="opacity:1" fill="#ea9d37" d="M 306.5,227.5 C 306.598,229.553 305.931,231.22 304.5,232.5C 297.836,234.498 291.169,236.498 284.5,238.5C 283.094,238.027 282.427,237.027 282.5,235.5C 289.978,231.377 297.978,228.71 306.5,227.5 Z"/></g>
<g><path style="opacity:1" fill="#f3aa3b" d="M 259.5,224.5 C 260.911,226.539 262.911,227.539 265.5,227.5C 264.899,230.968 263.899,234.301 262.5,237.5C 258.085,237.695 253.751,237.195 249.5,236C 249.957,235.586 250.291,235.086 250.5,234.5C 240.161,233.295 229.828,233.295 219.5,234.5C 218.89,233.609 218.557,232.609 218.5,231.5C 230.032,228.51 241.698,227.843 253.5,229.5C 253.579,230.93 253.246,232.264 252.5,233.5C 253.5,234.833 254.5,234.833 255.5,233.5C 256.857,230.399 258.19,227.399 259.5,224.5 Z"/></g>
<g><path style="opacity:1" fill="#de8233" d="M 262.5,237.5 C 262.008,239.819 261.008,241.819 259.5,243.5C 258.527,243.013 257.527,242.513 256.5,242C 249.116,241.607 241.782,240.774 234.5,239.5C 230.903,240.589 227.237,241.255 223.5,241.5C 221.914,239.33 220.58,236.996 219.5,234.5C 229.828,233.295 240.161,233.295 250.5,234.5C 250.291,235.086 249.957,235.586 249.5,236C 253.751,237.195 258.085,237.695 262.5,237.5 Z"/></g>
<g><path style="opacity:1" fill="#d68031" d="M 309.5,231.5 C 314.167,231.5 318.833,231.5 323.5,231.5C 322.773,233.954 321.773,236.287 320.5,238.5C 309.192,235.915 298.859,237.915 289.5,244.5C 287.086,243.089 285.419,241.089 284.5,238.5C 291.169,236.498 297.836,234.498 304.5,232.5C 304.47,233.497 304.97,234.164 306,234.5C 307.174,233.456 308.341,232.456 309.5,231.5 Z"/></g>
<g><path style="opacity:1" fill="#b25d28" d="M 320.5,238.5 C 318.975,241.563 316.975,244.23 314.5,246.5C 308.428,244.928 302.761,246.095 297.5,250C 298.737,250.232 299.737,250.732 300.5,251.5C 295.737,250.948 292.07,248.615 289.5,244.5C 298.859,237.915 309.192,235.915 320.5,238.5 Z"/></g>
<g><path style="opacity:1" fill="#6a0102" d="M 150.5,243.5 C 151.043,243.56 151.376,243.893 151.5,244.5C 149.257,245.474 146.924,245.808 144.5,245.5C 146.5,244.833 148.5,244.167 150.5,243.5 Z"/></g>
<g><path style="opacity:1" fill="#0d0706" d="M 232.5,271.5 C 234.515,272.924 236.848,273.59 239.5,273.5C 243.567,275.054 247.9,275.72 252.5,275.5C 262.461,276.424 272.461,276.758 282.5,276.5C 285.152,276.59 287.485,275.924 289.5,274.5C 309.818,269.841 327.818,260.675 343.5,247C 349,245.833 351.167,248 350,253.5C 348.69,256.473 346.69,258.807 344,260.5C 339.539,285.258 328.372,306.424 310.5,324C 278.393,349.237 245.726,349.904 212.5,326C 197.424,311.348 188.591,293.514 186,272.5C 184.98,265.201 184.313,257.868 184,250.5C 182.186,248.285 181.686,245.952 182.5,243.5C 196.482,257.494 213.148,266.828 232.5,271.5 Z"/></g>
<g><path style="opacity:1" fill="#ba5d2a" d="M 259.5,243.5 C 258.219,246.447 256.219,248.781 253.5,250.5C 250.305,248.97 246.805,248.304 243,248.5C 238.887,247.974 235.387,248.974 232.5,251.5C 228.788,248.789 225.788,245.456 223.5,241.5C 227.237,241.255 230.903,240.589 234.5,239.5C 241.782,240.774 249.116,241.607 256.5,242C 257.527,242.513 258.527,243.013 259.5,243.5 Z"/></g>
<g><path style="opacity:1" fill="#8e411f" d="M 314.5,246.5 C 310.801,250.513 306.135,252.18 300.5,251.5C 299.737,250.732 298.737,250.232 297.5,250C 302.761,246.095 308.428,244.928 314.5,246.5 Z"/></g>
<g><path style="opacity:1" fill="#974321" d="M 253.5,250.5 C 246.847,256.757 239.847,257.09 232.5,251.5C 235.387,248.974 238.887,247.974 243,248.5C 246.805,248.304 250.305,248.97 253.5,250.5 Z"/></g>
<g><path style="opacity:1" fill="#1b0300" d="M 267.5,248.5 C 268.552,248.351 269.552,248.517 270.5,249C 271.05,250.845 272.05,252.345 273.5,253.5C 278.574,248.051 279.741,249.051 277,256.5C 271.499,259.835 267.999,258.335 266.5,252C 266.648,250.744 266.982,249.577 267.5,248.5 Z"/></g>
<g><path style="opacity:1" fill="#c7c5c5" d="M 191.5,259.5 C 194.029,261.265 196.362,263.265 198.5,265.5C 197.167,267.5 195.5,269.167 193.5,270.5C 191.906,267.015 191.24,263.348 191.5,259.5 Z"/></g>
<g><path style="opacity:1" fill="#de0202" d="M 174.5,267.5 C 174.586,268.496 174.252,269.329 173.5,270C 181.962,299.606 198.962,322.939 224.5,340C 238.352,348.38 253.352,352.213 269.5,351.5C 268.942,352.79 267.942,353.623 266.5,354C 258.173,354.5 249.84,354.666 241.5,354.5C 228.183,352.673 216.516,347.34 206.5,338.5C 199.725,330.721 192.392,323.721 184.5,317.5C 174.539,305.256 166.872,291.589 161.5,276.5C 166.8,274.7 171.134,271.7 174.5,267.5 Z"/></g>
<g><path style="opacity:1" fill="#8e0002" d="M 232.5,271.5 C 235.152,271.41 237.485,272.076 239.5,273.5C 236.848,273.59 234.515,272.924 232.5,271.5 Z"/></g>
<g><path style="opacity:1" fill="#900003" d="M 239.5,273.5 C 244.1,273.28 248.433,273.946 252.5,275.5C 247.9,275.72 243.567,275.054 239.5,273.5 Z"/></g>
<g><path style="opacity:1" fill="#c1bbbb" d="M 330.5,269.5 C 331.376,269.369 332.043,269.702 332.5,270.5C 331.162,273.176 329.829,275.842 328.5,278.5C 327.289,277.126 326.289,275.626 325.5,274C 327.043,272.287 328.709,270.787 330.5,269.5 Z"/></g>
<g><path style="opacity:1" fill="#c1bfbf" d="M 215.5,275.5 C 214.853,276.274 214.52,277.274 214.5,278.5C 215.189,284.147 215.689,289.814 216,295.5C 216.232,296.737 216.732,297.737 217.5,298.5C 216.609,300.609 215.442,302.609 214,304.5C 211.931,294.955 210.431,285.289 209.5,275.5C 209.833,274.5 210.167,273.5 210.5,272.5C 212.145,273.696 213.811,274.696 215.5,275.5 Z"/></g>
<g><path style="opacity:1" fill="#4f0401" d="M 289.5,274.5 C 287.485,275.924 285.152,276.59 282.5,276.5C 284.515,275.076 286.848,274.41 289.5,274.5 Z"/></g>
<g><path style="opacity:1" fill="#f7f5f5" d="M 215.5,275.5 C 219.155,277.829 223.155,279.163 227.5,279.5C 225.061,286.281 221.728,292.614 217.5,298.5C 216.732,297.737 216.232,296.737 216,295.5C 215.689,289.814 215.189,284.147 214.5,278.5C 214.52,277.274 214.853,276.274 215.5,275.5 Z"/></g>
<g><path style="opacity:0.02" fill="#000000" d="M 133.5,282.5 C 132.833,281.167 132.833,281.167 133.5,282.5 Z"/></g>
<g><path style="opacity:0.043" fill="#000000" d="M 133.5,282.5 C 134.167,282.5 134.5,282.833 134.5,283.5C 134.167,283.167 133.833,282.833 133.5,282.5 Z"/></g>
<g><path style="opacity:0.024" fill="#000000" d="M 134.5,283.5 C 135.492,283.328 136.158,283.662 136.5,284.5C 135.508,284.672 134.842,284.338 134.5,283.5 Z"/></g>
<g><path style="opacity:1" fill="#b8b4b4" d="M 306.5,280.5 C 307.833,280.5 309.167,280.5 310.5,280.5C 310.441,288.069 309.108,295.402 306.5,302.5C 304.308,296.615 301.975,290.782 299.5,285C 299.645,284.228 299.978,283.561 300.5,283C 302.723,282.434 304.723,281.6 306.5,280.5 Z"/></g>
<g><path style="opacity:1" fill="#f9f7f7" d="M 307.5,281.5 C 308.725,282.152 309.392,283.319 309.5,285C 309.369,287.253 308.869,289.419 308,291.5C 305.95,288.852 304.784,285.852 304.5,282.5C 305.791,282.737 306.791,282.404 307.5,281.5 Z"/></g>
<g><path style="opacity:0.039" fill="#000000" d="M 136.5,284.5 C 137.167,284.5 137.5,284.833 137.5,285.5C 137.167,285.167 136.833,284.833 136.5,284.5 Z"/></g>
<g><path style="opacity:1" fill="#d4d0d0" d="M 199.5,276.5 C 200.75,276.577 201.583,277.244 202,278.5C 203.775,287.102 205.942,295.602 208.5,304C 208.167,304.5 207.833,305 207.5,305.5C 201.934,297.952 198.434,289.618 197,280.5C 198.481,279.529 199.315,278.196 199.5,276.5 Z"/></g>
<g><path style="opacity:0.039" fill="#000000" d="M 137.5,285.5 C 138.167,285.5 138.5,285.833 138.5,286.5C 138.167,286.167 137.833,285.833 137.5,285.5 Z"/></g>
<g><path style="opacity:1" fill="#c5c3c3" d="M 248.5,286.5 C 247.167,286.5 245.833,286.5 244.5,286.5C 244.77,294.51 245.27,302.51 246,310.5C 246.383,309.944 246.883,309.611 247.5,309.5C 246.549,311.472 245.549,313.472 244.5,315.5C 242.005,305.353 240.005,295.02 238.5,284.5C 242.011,284.899 245.344,285.566 248.5,286.5 Z"/></g>
<g><path style="opacity:0.031" fill="#000000" d="M 138.5,286.5 C 139.167,286.5 139.5,286.833 139.5,287.5C 139.167,287.167 138.833,286.833 138.5,286.5 Z"/></g>
<g><path style="opacity:1" fill="#f5f4f4" d="M 248.5,286.5 C 250.5,286.5 252.5,286.5 254.5,286.5C 252.349,294.281 250.016,301.948 247.5,309.5C 246.883,309.611 246.383,309.944 246,310.5C 245.27,302.51 244.77,294.51 244.5,286.5C 245.833,286.5 247.167,286.5 248.5,286.5 Z"/></g>
<g><path style="opacity:0.012" fill="#000000" d="M 139.5,287.5 C 140.167,287.5 140.5,287.833 140.5,288.5C 140.167,288.167 139.833,287.833 139.5,287.5 Z"/></g>
<g><path style="opacity:0.008" fill="#000000" d="M 140.5,288.5 C 141.167,288.5 141.5,288.833 141.5,289.5C 141.167,289.167 140.833,288.833 140.5,288.5 Z"/></g>
<g><path style="opacity:1" fill="#f9f7f7" d="M 282.5,292.5 C 281.506,298.796 280.84,305.13 280.5,311.5C 279.59,313.019 278.757,314.685 278,316.5C 276,310.5 274,304.5 272,298.5C 270.957,295.243 270.457,291.91 270.5,288.5C 274.5,288.5 278.5,288.5 282.5,288.5C 282.5,289.833 282.5,291.167 282.5,292.5 Z"/></g>
<g><path style="opacity:0.004" fill="#000000" d="M 141.5,289.5 C 142.167,289.5 142.5,289.833 142.5,290.5C 142.167,290.167 141.833,289.833 141.5,289.5 Z"/></g>
<g><path style="opacity:0.004" fill="#000000" d="M 142.5,290.5 C 143.833,291.167 143.833,291.167 142.5,290.5 Z"/></g>
<g><path style="opacity:1" fill="#c5c2c2" d="M 317.5,279.5 C 320.479,281.812 323.146,284.479 325.5,287.5C 322.585,292.998 319.419,298.332 316,303.5C 316.056,295.491 316.556,287.491 317.5,279.5 Z"/></g>
<g><path style="opacity:1" fill="#f6f3f3" d="M 293.5,294.5 C 297.473,300.948 300.807,307.781 303.5,315C 301.333,319.275 298,322.442 293.5,324.5C 292.167,314.5 292.167,304.5 293.5,294.5 Z"/></g>
<g><path style="opacity:1" fill="#c2c0c0" d="M 282.5,292.5 C 282.5,291.167 282.5,289.833 282.5,288.5C 278.5,288.5 274.5,288.5 270.5,288.5C 270.457,291.91 270.957,295.243 272,298.5C 274,304.5 276,310.5 278,316.5C 278.757,314.685 279.59,313.019 280.5,311.5C 279.712,315.868 278.712,320.201 277.5,324.5C 272.673,312.743 268.339,300.743 264.5,288.5C 270.798,287.504 277.132,287.17 283.5,287.5C 283.784,289.415 283.451,291.081 282.5,292.5 Z"/></g>
<g><path style="opacity:1" fill="#f1efef" d="M 231.5,298.5 C 234.935,307.3 238.102,316.3 241,325.5C 241.798,327.259 241.631,328.926 240.5,330.5C 233.697,327.933 227.364,324.6 221.5,320.5C 224.317,312.871 227.65,305.537 231.5,298.5 Z"/></g>
<g><path style="opacity:1" fill="#502932" d="M 354.5,293.5 C 354.263,296.647 353.43,299.647 352,302.5C 351.292,303.381 350.458,304.047 349.5,304.5C 350.603,300.503 352.269,296.836 354.5,293.5 Z"/></g>
<g><path style="opacity:1" fill="#c0bdbd" d="M 231.5,298.5 C 227.65,305.537 224.317,312.871 221.5,320.5C 220.188,319.855 219.188,318.855 218.5,317.5C 221.512,308.475 225.346,299.808 230,291.5C 230.977,293.74 231.477,296.073 231.5,298.5 Z"/></g>
<g><path style="opacity:1" fill="#bebbbb" d="M 293.5,294.5 C 292.167,304.5 292.167,314.5 293.5,324.5C 291.396,325.912 289.063,326.912 286.5,327.5C 286.742,314.417 287.908,301.417 290,288.5C 291.431,290.364 292.597,292.364 293.5,294.5 Z"/></g>
<g><path style="opacity:1" fill="#f4f2f2" d="M 261.5,306.5 C 265.534,314.898 269.867,323.231 274.5,331.5C 273.624,332.251 272.624,332.751 271.5,333C 266.511,333.499 261.511,333.666 256.5,333.5C 258.119,324.904 259.285,316.237 260,307.5C 260.383,306.944 260.883,306.611 261.5,306.5 Z"/></g>
<g><path style="opacity:1" fill="#c0bebe" d="M 261.5,306.5 C 260.883,306.611 260.383,306.944 260,307.5C 259.285,316.237 258.119,324.904 256.5,333.5C 254.167,333.5 251.833,333.5 249.5,333.5C 251.62,321.598 254.62,309.931 258.5,298.5C 259.897,301.026 260.897,303.692 261.5,306.5 Z"/></g>
<g><path style="opacity:1" fill="#bf1b1d" d="M 184.5,317.5 C 192.392,323.721 199.725,330.721 206.5,338.5C 197.896,332.898 190.563,325.898 184.5,317.5 Z"/></g>
<g><path style="opacity:1" fill="#e50b0c" d="M 333.5,314.5 C 322.098,331.03 307.098,343.03 288.5,350.5C 282.862,351.22 277.196,351.553 271.5,351.5C 283.012,348.38 294.346,344.38 305.5,339.5C 308.196,335.292 311.863,332.458 316.5,331C 321.618,326.224 325.952,320.891 329.5,315C 330.793,314.51 332.127,314.343 333.5,314.5 Z"/></g>
<g><path style="opacity:0.376" fill="#9b9107" d="M 210.5,351.5 C 213.004,352.584 215.337,353.917 217.5,355.5C 214.386,355.445 212.052,354.112 210.5,351.5 Z"/></g>
<g><path style="opacity:1" fill="#c81516" d="M 288.5,350.5 C 287.158,351.793 285.491,352.626 283.5,353C 270.999,356.119 258.332,357.119 245.5,356C 243.942,355.79 242.609,355.29 241.5,354.5C 249.84,354.666 258.173,354.5 266.5,354C 267.942,353.623 268.942,352.79 269.5,351.5C 270.167,351.5 270.833,351.5 271.5,351.5C 277.196,351.553 282.862,351.22 288.5,350.5 Z"/></g>
</svg>
